<?xml version="1.0" encoding="UTF-8" standalone="no"?>
<svg
   xmlns:dc="http://purl.org/dc/elements/1.1/"
   xmlns:cc="http://creativecommons.org/ns#"
   xmlns:rdf="http://www.w3.org/1999/02/22-rdf-syntax-ns#"
   xmlns:svg="http://www.w3.org/2000/svg"
   xmlns="http://www.w3.org/2000/svg"
   version="1.1"
   id="svg2"
   viewBox="0 0 437.10007 436.57211"
   height="436.57211mm"
   width="437.10007mm">
  <defs
     id="defs4" />
  <metadata
     id="metadata7">
    <rdf:RDF>
      <cc:Work
         rdf:about="">
        <dc:format>image/svg+xml</dc:format>
        <dc:type
           rdf:resource="http://purl.org/dc/dcmitype/StillImage" />
        <dc:title></dc:title>
      </cc:Work>
    </rdf:RDF>
  </metadata>
  <g
     transform="translate(-1623.107,-160.19252)"
     id="layer1">
    <g
       id="g5741">
      <g
         transform="translate(-2.6398182e-5,1.110096e-6)"
         id="g5835">
        <rect
           ry="0"
           rx="0"
           y="160.04713"
           x="1623.3895"
           height="436.435"
           width="436.435"
           id="rect5837"
           style="opacity:1;fill:#000000;fill-opacity:1;fill-rule:nonzero;stroke:#000000;stroke-width:0.56499994;stroke-linecap:butt;stroke-linejoin:miter;stroke-miterlimit:4;stroke-dasharray:none;stroke-dashoffset:0;stroke-opacity:1" />
      </g>
      <path
         style="fill:none;fill-rule:evenodd;stroke:#ffffff;stroke-width:26;stroke-linecap:butt;stroke-linejoin:miter;stroke-miterlimit:4;stroke-dasharray:none;stroke-opacity:1"
         d="m 1623.1436,562.59802 c 18.2401,0.0135 34.2464,5.45853 34.1594,34.17194"
         id="path5863" />
      <path
         id="path6557"
         d="m 1623.1436,193.9683 c 297.3,0 402.7966,101.96667 402.7966,402.79633"
         style="fill:none;fill-rule:evenodd;stroke:#ffffff;stroke-width:26;stroke-linecap:butt;stroke-linejoin:miter;stroke-miterlimit:4;stroke-dasharray:none;stroke-opacity:1" />
      <path
         id="path6593"
         d="m 1634.6482,379.32299 c 65.3249,3.52791 130.7226,7.05975 165.183,40.9809 34.4605,33.92115 38.1452,98.39056 41.8258,162.78833"
         style="fill:none;fill-rule:evenodd;stroke:#fff600;stroke-width:13;stroke-linecap:butt;stroke-linejoin:miter;stroke-miterlimit:4;stroke-dasharray:38.99999957, 38.99999957;stroke-dashoffset:0;stroke-opacity:1" />
      <path
         id="path6601"
         d="m 1854.6789,191.85287 c -9.7037,8.82145 59.2568,26.4568 103.4442,70.64421 44.1874,44.18741 63.5863,114.91154 73.2898,106.08991 9.7036,-8.82164 9.7036,-97.18728 9.7036,-185.55557 -88.3948,0 -176.7339,0 -186.4376,8.82145 z"
         style="fill:#008000;fill-rule:evenodd;stroke:#009200;stroke-width:0.26458332px;stroke-linecap:butt;stroke-linejoin:miter;stroke-opacity:1" />
    </g>
  </g>
</svg>
