<?xml version="1.0" encoding="UTF-8" standalone="no"?>
<!-- Created with Inkscape (http://www.inkscape.org/) -->

<svg
   xmlns:dc="http://purl.org/dc/elements/1.1/"
   xmlns:cc="http://creativecommons.org/ns#"
   xmlns:rdf="http://www.w3.org/1999/02/22-rdf-syntax-ns#"
   xmlns:svg="http://www.w3.org/2000/svg"
   xmlns="http://www.w3.org/2000/svg"
   xmlns:sodipodi="http://sodipodi.sourceforge.net/DTD/sodipodi-0.dtd"
   xmlns:inkscape="http://www.inkscape.org/namespaces/inkscape"
   width="484.72849mm"
   height="484.22348mm"
   viewBox="0 0 484.72849 484.22348"
   id="svg2"
   version="1.1"
   inkscape:version="0.91+devel+osxmenu r12922"
   sodipodi:docname="empty_tile.svg">
  <defs
     id="defs4" />
  <sodipodi:namedview
     id="base"
     pagecolor="#ffffff"
     bordercolor="#666666"
     borderopacity="1.0"
     inkscape:pageopacity="0.0"
     inkscape:pageshadow="2"
     inkscape:zoom="0.12374369"
     inkscape:cx="-105.05019"
     inkscape:cy="1305.8907"
     inkscape:document-units="mm"
     inkscape:current-layer="g5207"
     showgrid="false"
     fit-margin-top="0"
     fit-margin-left="0"
     fit-margin-right="0"
     fit-margin-bottom="0"
     inkscape:window-width="1680"
     inkscape:window-height="954"
     inkscape:window-x="0"
     inkscape:window-y="23"
     inkscape:window-maximized="0" />
  <metadata
     id="metadata7">
    <rdf:RDF>
      <cc:Work
         rdf:about="">
        <dc:format>image/svg+xml</dc:format>
        <dc:type
           rdf:resource="http://purl.org/dc/dcmitype/StillImage" />
        <dc:title></dc:title>
      </cc:Work>
    </rdf:RDF>
  </metadata>
  <g
     inkscape:label="Layer 1"
     inkscape:groupmode="layer"
     id="layer1"
     transform="translate(-1599.3057,-136.36689)">
    <g
       id="g4469"
       transform="translate(-204.19392,-257.64782)">
      <g
         transform="rotate(90,1289.4968,-997.5021)"
         id="g4455">
        <g
           id="g5207">
          <path
             style="fill:#000000;fill-opacity:1;fill-rule:evenodd;stroke:#000000;stroke-width:0.26458332px;stroke-linecap:butt;stroke-linejoin:miter;stroke-opacity:1"
             d="m 2705.1463,-1609.6981 c 0,0 -19.5484,11.199 -21.2988,12.2757 -1.9393,1.1929 -2.6771,-0.3653 -2.6771,-2.5036 l 0,-42.9002 c 0,-2.1973 1.6107,-3.0389 3.4167,-1.9962 l 20.5347,11.8667 z"
             id="path4344"
             inkscape:connector-curvature="0"
             sodipodi:nodetypes="cszzzcc" />
          <path
             sodipodi:nodetypes="cszzzcc"
             inkscape:connector-curvature="0"
             id="path4346"
             d="m 2705.1463,-1683.7815 c 0,0 -19.5484,11.1991 -21.2988,12.2758 -1.9393,1.1929 -2.6771,-0.3654 -2.6771,-2.5036 l 0,-42.9003 c 0,-2.1973 1.6107,-3.0388 3.4167,-1.9961 l 20.5347,11.8667 z"
             style="fill:#000000;fill-opacity:1;fill-rule:evenodd;stroke:#000000;stroke-width:0.26458332px;stroke-linecap:butt;stroke-linejoin:miter;stroke-opacity:1" />
          <path
             style="fill:#000000;fill-opacity:1;fill-rule:evenodd;stroke:#000000;stroke-width:0.26458332px;stroke-linecap:butt;stroke-linejoin:miter;stroke-opacity:1"
             d="m 2705.1463,-1757.8648 c 0,0 -19.5484,11.199 -21.2988,12.2758 -1.9393,1.1929 -2.6771,-0.3654 -2.6771,-2.5036 l 0,-42.9003 c 0,-2.1973 1.6107,-3.0389 3.4167,-1.9961 l 20.5347,11.8667 z"
             id="path4348"
             inkscape:connector-curvature="0"
             sodipodi:nodetypes="cszzzcc" />
          <path
             sodipodi:nodetypes="cszzzcc"
             inkscape:connector-curvature="0"
             id="path4350"
             d="m 2705.1463,-1911.3237 c 0,0 -19.5484,11.1991 -21.2988,12.2758 -1.9393,1.1929 -2.6771,-0.3654 -2.6771,-2.5036 l 0,-42.9003 c 0,-2.1973 1.6107,-3.0388 3.4167,-1.9961 l 20.5347,11.8667 z"
             style="fill:#000000;fill-opacity:1;fill-rule:evenodd;stroke:#000000;stroke-width:0.26458332px;stroke-linecap:butt;stroke-linejoin:miter;stroke-opacity:1" />
          <path
             sodipodi:nodetypes="cszzzcc"
             inkscape:connector-curvature="0"
             id="path4431"
             d="m 2987.6687,-1535.6131 c 0,0 11.199,19.5484 12.2757,21.2988 1.1929,1.9393 -0.3653,2.6771 -2.5036,2.6771 l -42.9002,0 c -2.1973,0 -3.0389,-1.6107 -1.9962,-3.4167 l 11.8667,-20.5347 z"
             style="fill:#000000;fill-opacity:1;fill-rule:evenodd;stroke:#000000;stroke-width:0.26458332px;stroke-linecap:butt;stroke-linejoin:miter;stroke-opacity:1" />
          <path
             style="fill:#000000;fill-opacity:1;fill-rule:evenodd;stroke:#000000;stroke-width:0.26458332px;stroke-linecap:butt;stroke-linejoin:miter;stroke-opacity:1"
             d="m 2913.5853,-1535.6131 c 0,0 11.1991,19.5484 12.2758,21.2988 1.1929,1.9393 -0.3654,2.6771 -2.5036,2.6771 l -42.9003,0 c -2.1973,0 -3.0388,-1.6107 -1.9961,-3.4167 l 11.8667,-20.5347 z"
             id="path4433"
             inkscape:connector-curvature="0"
             sodipodi:nodetypes="cszzzcc" />
          <path
             sodipodi:nodetypes="cszzzcc"
             inkscape:connector-curvature="0"
             id="path4435"
             d="m 2839.502,-1535.6131 c 0,0 11.199,19.5484 12.2758,21.2988 1.1929,1.9393 -0.3654,2.6771 -2.5036,2.6771 l -42.9003,0 c -2.1973,0 -3.0389,-1.6107 -1.9961,-3.4167 l 11.8667,-20.5347 z"
             style="fill:#000000;fill-opacity:1;fill-rule:evenodd;stroke:#000000;stroke-width:0.26458332px;stroke-linecap:butt;stroke-linejoin:miter;stroke-opacity:1" />
          <path
             style="fill:#000000;fill-opacity:1;fill-rule:evenodd;stroke:#000000;stroke-width:0.26458332px;stroke-linecap:butt;stroke-linejoin:miter;stroke-opacity:1"
             d="m 2765.4186,-1535.6131 c 0,0 11.1991,19.5484 12.2758,21.2988 1.1929,1.9393 -0.3654,2.6771 -2.5036,2.6771 l -42.9003,0 c -2.1973,0 -3.0388,-1.6107 -1.9961,-3.4167 l 11.8667,-20.5347 z"
             id="path4437"
             inkscape:connector-curvature="0"
             sodipodi:nodetypes="cszzzcc" />
          <path
             style="fill:#000000;fill-opacity:1;fill-rule:evenodd;stroke:#000000;stroke-width:0.26458332px;stroke-linecap:butt;stroke-linejoin:miter;stroke-opacity:1"
             d="m 3141.1289,-1818.665 c 0,0 19.5484,-11.199 21.2988,-12.2757 1.9393,-1.1929 2.6771,0.3653 2.6771,2.5036 l 0,42.9002 c 0,2.1973 -1.6107,3.0389 -3.4167,1.9962 l -20.5347,-11.8667 z"
             id="path4445"
             inkscape:connector-curvature="0"
             sodipodi:nodetypes="cszzzcc" />
          <path
             sodipodi:nodetypes="cszzzcc"
             inkscape:connector-curvature="0"
             id="path4447"
             d="m 3141.1289,-1744.5816 c 0,0 19.5484,-11.1991 21.2988,-12.2758 1.9393,-1.1929 2.6771,0.3654 2.6771,2.5036 l 0,42.9003 c 0,2.1973 -1.6107,3.0388 -3.4167,1.9961 l -20.5347,-11.8667 z"
             style="fill:#000000;fill-opacity:1;fill-rule:evenodd;stroke:#000000;stroke-width:0.26458332px;stroke-linecap:butt;stroke-linejoin:miter;stroke-opacity:1" />
          <path
             style="fill:#000000;fill-opacity:1;fill-rule:evenodd;stroke:#000000;stroke-width:0.26458332px;stroke-linecap:butt;stroke-linejoin:miter;stroke-opacity:1"
             d="m 3141.1289,-1670.4983 c 0,0 19.5484,-11.199 21.2988,-12.2758 1.9393,-1.1929 2.6771,0.3654 2.6771,2.5036 l 0,42.9003 c 0,2.1973 -1.6107,3.0389 -3.4167,1.9961 l -20.5347,-11.8667 z"
             id="path4449"
             inkscape:connector-curvature="0"
             sodipodi:nodetypes="cszzzcc" />
          <path
             sodipodi:nodetypes="cszzzcc"
             inkscape:connector-curvature="0"
             id="path4451"
             d="m 3141.1289,-1596.4149 c 0,0 19.5484,-11.1991 21.2988,-12.2758 1.9393,-1.1929 2.6771,0.3654 2.6771,2.5036 l 0,42.9003 c 0,2.1973 -1.6107,3.0388 -3.4167,1.9961 l -20.5347,-11.8667 z"
             style="fill:#000000;fill-opacity:1;fill-rule:evenodd;stroke:#000000;stroke-width:0.26458332px;stroke-linecap:butt;stroke-linejoin:miter;stroke-opacity:1" />
          <path
             sodipodi:nodetypes="csssszzzcc"
             inkscape:connector-curvature="0"
             id="path4975-5-2"
             d="m 3141.1289,-1972.1238 c 0,0 8.687,-0.1 10.6669,-0.4663 0.6042,-0.1119 2.3295,-0.5812 2.0559,-1.5117 -0.456,-1.5507 -2.2585,-4.027 -2.2149,-4.0521 4.9436,-2.8418 9.9451,-5.7254 10.7909,-6.2457 1.9393,-1.1929 2.6771,0.3654 2.6771,2.5036 l 0,42.9003 c 0,2.1973 -1.6107,3.0388 -3.4167,1.9961 l -20.5347,-11.8667 z"
             style="fill:#000000;fill-opacity:1;fill-rule:evenodd;stroke:#000000;stroke-width:0.26458332px;stroke-linecap:butt;stroke-linejoin:miter;stroke-opacity:1" />
          <path
             style="fill:#000000;fill-opacity:1;fill-rule:evenodd;stroke:#000000;stroke-width:0.26458332px;stroke-linecap:butt;stroke-linejoin:miter;stroke-opacity:1"
             d="m 2779.2313,-1972.1252 c 0,0 -11.199,-19.5484 -12.2757,-21.2988 -1.1929,-1.9393 0.3653,-2.6771 2.5036,-2.6771 l 42.9002,0 c 2.1973,0 3.0389,1.6107 1.9962,3.4167 l -11.8667,20.5347 z"
             id="path4459"
             inkscape:connector-curvature="0"
             sodipodi:nodetypes="cszzzcc" />
          <path
             sodipodi:nodetypes="cszzzcc"
             inkscape:connector-curvature="0"
             id="path4461"
             d="m 2853.3147,-1972.1252 c 0,0 -11.1991,-19.5484 -12.2758,-21.2988 -1.1929,-1.9393 0.3654,-2.6771 2.5036,-2.6771 l 42.9003,0 c 2.1973,0 3.0388,1.6107 1.9961,3.4167 l -11.8667,20.5347 z"
             style="fill:#000000;fill-opacity:1;fill-rule:evenodd;stroke:#000000;stroke-width:0.26458332px;stroke-linecap:butt;stroke-linejoin:miter;stroke-opacity:1" />
          <path
             style="fill:#000000;fill-opacity:1;fill-rule:evenodd;stroke:#000000;stroke-width:0.26458332px;stroke-linecap:butt;stroke-linejoin:miter;stroke-opacity:1"
             d="m 2927.398,-1972.1252 c 0,0 -11.199,-19.5484 -12.2758,-21.2988 -1.1929,-1.9393 0.3654,-2.6771 2.5036,-2.6771 l 42.9003,0 c 2.1973,0 3.0389,1.6107 1.9961,3.4167 l -11.8667,20.5347 z"
             id="path4463"
             inkscape:connector-curvature="0"
             sodipodi:nodetypes="cszzzcc" />
          <path
             sodipodi:nodetypes="cszzzcc"
             inkscape:connector-curvature="0"
             id="path4465"
             d="m 3080.8569,-1972.1252 c 0,0 -11.1991,-19.5484 -12.2758,-21.2988 -1.1929,-1.9393 0.3654,-2.6771 2.5036,-2.6771 l 42.9003,0 c 2.1973,0 3.0388,1.6107 1.9961,3.4167 l -11.8667,20.5347 z"
             style="fill:#000000;fill-opacity:1;fill-rule:evenodd;stroke:#000000;stroke-width:0.26458332px;stroke-linecap:butt;stroke-linejoin:miter;stroke-opacity:1" />
          <path
             sodipodi:nodetypes="csssszzzcc"
             inkscape:connector-curvature="0"
             id="path4467"
             d="m 2705.148,-1972.1252 c 0,0 -0.1,-8.687 -0.4663,-10.6669 -0.1119,-0.6042 -0.5812,-2.3295 -1.5117,-2.0559 -1.5507,0.456 -4.027,2.2585 -4.0521,2.2149 -2.8418,-4.9436 -5.7254,-9.9451 -6.2457,-10.7909 -1.1929,-1.9393 0.3654,-2.6771 2.5036,-2.6771 l 42.9003,0 c 2.1973,0 3.0388,1.6107 1.9961,3.4167 l -11.8667,20.5347 z"
             style="fill:#000000;fill-opacity:1;fill-rule:evenodd;stroke:#000000;stroke-width:0.26458332px;stroke-linecap:butt;stroke-linejoin:miter;stroke-opacity:1" />
          <path
             style="fill:#000000;fill-opacity:1;fill-rule:evenodd;stroke:#000000;stroke-width:0.26458332px;stroke-linecap:butt;stroke-linejoin:miter;stroke-opacity:1"
             d="m 2705.1218,-1535.5887 c 0,0 -8.687,0.1 -10.6669,0.4663 -0.6042,0.1119 -2.3295,0.5812 -2.0559,1.5117 0.456,1.5507 2.2585,4.027 2.2149,4.052 -4.9436,2.8419 -9.9451,5.7254 -10.7909,6.2457 -1.9393,1.1929 -2.6771,-0.3654 -2.6771,-2.5036 l 0,-42.9 c 0,-2.1973 1.6107,-3.0388 3.4167,-1.9961 l 20.5347,11.8666 z"
             id="path4992"
             inkscape:connector-curvature="0"
             sodipodi:nodetypes="csssszzzcc" />
          <path
             style="fill:#000000;fill-opacity:1;fill-rule:evenodd;stroke:#000000;stroke-width:0.26458332px;stroke-linecap:butt;stroke-linejoin:miter;stroke-opacity:1"
             d="m 3141.1275,-1535.6131 c 0,0 0.1,8.687 0.4663,10.6669 0.1119,0.6042 0.5812,2.3295 1.5117,2.0559 1.5507,-0.456 4.027,-2.2585 4.0521,-2.2149 2.8418,4.9436 5.7254,9.9451 6.2457,10.7909 1.1929,1.9393 -0.3654,2.6771 -2.5036,2.6771 l -42.9003,0 c -2.1973,0 -3.0388,-1.6107 -1.9961,-3.4167 l 11.8667,-20.5347 z"
             id="path4975-5"
             inkscape:connector-curvature="0"
             sodipodi:nodetypes="csssszzzcc" />
          <path
             sodipodi:nodetypes="cszzzcc"
             inkscape:connector-curvature="0"
             id="path5390"
             d="m 2705.1463,-1837.2403 c 0,0 -19.5484,11.199 -21.2988,12.2758 -1.9393,1.1929 -2.6771,-0.3654 -2.6771,-2.5036 l 0,-42.9003 c 0,-2.1973 1.6107,-3.0389 3.4167,-1.9961 l 20.5347,11.8667 z"
             style="fill:#000000;fill-opacity:1;fill-rule:evenodd;stroke:#000000;stroke-width:0.26458332px;stroke-linecap:butt;stroke-linejoin:miter;stroke-opacity:1" />
          <path
             sodipodi:nodetypes="cszzzcc"
             inkscape:connector-curvature="0"
             id="path5392"
             d="m 3141.1289,-1898.0405 c 0,0 19.5484,-11.199 21.2988,-12.2757 1.9393,-1.1929 2.6771,0.3653 2.6771,2.5036 l 0,42.9002 c 0,2.1973 -1.6107,3.0389 -3.4167,1.9962 l -20.5347,-11.8667 z"
             style="fill:#000000;fill-opacity:1;fill-rule:evenodd;stroke:#000000;stroke-width:0.26458332px;stroke-linecap:butt;stroke-linejoin:miter;stroke-opacity:1" />
          <path
             style="fill:#000000;fill-opacity:1;fill-rule:evenodd;stroke:#000000;stroke-width:0.26458332px;stroke-linecap:butt;stroke-linejoin:miter;stroke-opacity:1"
             d="m 3067.0442,-1535.6131 c 0,0 11.199,19.5484 12.2757,21.2988 1.1929,1.9393 -0.3653,2.6771 -2.5036,2.6771 l -42.9002,0 c -2.1973,0 -3.0389,-1.6107 -1.9962,-3.4167 l 11.8667,-20.5347 z"
             id="path5394"
             inkscape:connector-curvature="0"
             sodipodi:nodetypes="cszzzcc" />
          <path
             sodipodi:nodetypes="cszzzcc"
             inkscape:connector-curvature="0"
             id="path5396"
             d="m 3006.7735,-1972.1252 c 0,0 -11.199,-19.5484 -12.2758,-21.2988 -1.1929,-1.9393 0.3654,-2.6771 2.5036,-2.6771 l 42.9003,0 c 2.1973,0 3.0389,1.6107 1.9961,3.4167 l -11.8667,20.5347 z"
             style="fill:#000000;fill-opacity:1;fill-rule:evenodd;stroke:#000000;stroke-width:0.26458332px;stroke-linecap:butt;stroke-linejoin:miter;stroke-opacity:1" />
          <rect
             style="opacity:1;fill:#000000;fill-opacity:1;fill-rule:nonzero;stroke:#000000;stroke-width:0.56499994;stroke-linecap:butt;stroke-linejoin:miter;stroke-miterlimit:4;stroke-dasharray:none;stroke-dashoffset:0;stroke-opacity:1"
             id="rect5398"
             width="436.53506"
             height="436.00711"
             x="1535.5887"
             y="2705.1218"
             transform="rotate(-90)"
             rx="0"
             ry="0" />
        </g>
      </g>
    </g>
  </g>
</svg>
